# MagicaVoxel @ Ephtracy

# group
g rock_5

# material
mtllib rock_5.mtl
usemtl palette

# normals
vn -1 0 0
vn 1 0 0
vn 0 0 1
vn 0 0 -1
vn 0 -1 0
vn 0 1 0

# texcoords
vt 0.986328 0.5
vt 0.990234 0.5

# verts
v 24 20 20
v 24 20 17
v 24 26 20
v 24 26 17
v 25 19 20
v 25 19 17
v 25 20 21
v 25 20 20
v 25 20 17
v 25 20 16
v 25 21 24
v 25 21 21
v 25 25 24
v 25 25 21
v 25 26 21
v 25 26 20
v 25 26 17
v 25 26 16
v 25 27 20
v 25 27 17
v 26 20 24
v 26 20 21
v 26 21 25
v 26 21 24
v 26 21 21
v 26 25 25
v 26 25 24
v 26 25 21
v 26 26 24
v 26 26 21
v 28 21 16
v 28 21 14
v 28 25 16
v 28 25 14
v 29 20 16
v 29 20 14
v 29 21 16
v 29 21 14
v 29 21 13
v 29 25 16
v 29 25 14
v 29 25 13
v 29 26 16
v 29 26 14
v 30 18 21
v 30 18 18
v 30 20 21
v 30 20 18
v 30 20 14
v 30 20 13
v 30 21 14
v 30 21 13
v 30 21 12
v 30 25 14
v 30 25 13
v 30 25 12
v 30 26 21
v 30 26 18
v 30 26 14
v 30 26 13
v 30 28 21
v 30 28 18
v 31 17 21
v 31 17 18
v 31 18 22
v 31 18 21
v 31 18 18
v 31 18 17
v 31 20 22
v 31 20 21
v 31 20 18
v 31 20 17
v 31 26 22
v 31 26 21
v 31 26 18
v 31 26 17
v 31 28 22
v 31 28 21
v 31 28 18
v 31 28 17
v 31 29 21
v 31 29 18
v 32 20 13
v 32 20 12
v 32 21 13
v 32 21 12
v 32 21 11
v 32 25 13
v 32 25 12
v 32 25 11
v 32 26 13
v 32 26 12
v 33 20 12
v 33 20 11
v 33 21 12
v 33 21 11
v 33 21 10
v 33 25 12
v 33 25 11
v 33 25 10
v 33 26 12
v 33 26 11
v 34 19 23
v 34 19 22
v 34 20 23
v 34 20 22
v 34 26 23
v 34 26 22
v 34 27 23
v 34 27 22
v 28 19 20
v 28 19 17
v 28 20 20
v 28 20 17
v 28 26 20
v 28 26 17
v 28 27 20
v 28 27 17
v 29 20 24
v 29 20 23
v 29 21 25
v 29 21 24
v 29 21 23
v 29 25 25
v 29 25 24
v 29 25 23
v 29 26 24
v 29 26 23
v 34 17 21
v 34 17 18
v 34 18 21
v 34 18 18
v 34 18 17
v 34 20 18
v 34 20 17
v 34 21 24
v 34 21 23
v 34 25 24
v 34 25 23
v 34 26 18
v 34 26 17
v 34 28 21
v 34 28 18
v 34 28 17
v 34 29 21
v 34 29 18
v 35 18 19
v 35 18 18
v 35 19 19
v 35 19 18
v 35 27 19
v 35 27 18
v 35 28 19
v 35 28 18
v 36 20 18
v 36 20 14
v 36 21 18
v 36 21 14
v 36 25 18
v 36 25 14
v 36 26 18
v 36 26 14
v 37 18 22
v 37 18 19
v 37 19 23
v 37 19 22
v 37 19 19
v 37 19 18
v 37 20 23
v 37 20 22
v 37 20 19
v 37 20 18
v 37 20 14
v 37 20 11
v 37 21 18
v 37 21 14
v 37 21 11
v 37 21 10
v 37 25 18
v 37 25 14
v 37 25 11
v 37 25 10
v 37 26 23
v 37 26 22
v 37 26 19
v 37 26 18
v 37 26 14
v 37 26 11
v 37 27 23
v 37 27 22
v 37 27 19
v 37 27 18
v 37 28 22
v 37 28 19
v 38 19 22
v 38 19 19
v 38 20 23
v 38 20 22
v 38 20 19
v 38 20 18
v 38 21 14
v 38 21 11
v 38 25 14
v 38 25 11
v 38 26 23
v 38 26 22
v 38 26 19
v 38 26 18
v 38 27 22
v 38 27 19
v 39 20 22
v 39 20 19
v 39 26 22
v 39 26 19
v 26 21 25
v 26 25 25
v 29 21 25
v 29 25 25
v 25 21 24
v 25 25 24
v 26 20 24
v 26 21 24
v 26 25 24
v 26 26 24
v 29 20 24
v 29 21 24
v 29 25 24
v 29 26 24
v 34 21 24
v 34 25 24
v 29 20 23
v 29 21 23
v 29 25 23
v 29 26 23
v 34 19 23
v 34 20 23
v 34 21 23
v 34 25 23
v 34 26 23
v 34 27 23
v 35 21 23
v 35 25 23
v 37 19 23
v 37 20 23
v 37 26 23
v 37 27 23
v 38 20 23
v 38 26 23
v 31 18 22
v 31 20 22
v 31 26 22
v 31 28 22
v 34 19 22
v 34 20 22
v 34 26 22
v 34 27 22
v 37 18 22
v 37 19 22
v 37 20 22
v 37 26 22
v 37 27 22
v 37 28 22
v 38 19 22
v 38 20 22
v 38 26 22
v 38 27 22
v 39 20 22
v 39 26 22
v 25 20 21
v 25 21 21
v 25 25 21
v 25 26 21
v 26 20 21
v 26 21 21
v 26 25 21
v 26 26 21
v 30 18 21
v 30 20 21
v 30 26 21
v 30 28 21
v 31 17 21
v 31 18 21
v 31 20 21
v 31 26 21
v 31 28 21
v 31 29 21
v 34 17 21
v 34 18 21
v 34 28 21
v 34 29 21
v 24 20 20
v 24 26 20
v 25 19 20
v 25 20 20
v 25 26 20
v 25 27 20
v 28 19 20
v 28 20 20
v 28 26 20
v 28 27 20
v 36 20 14
v 36 21 14
v 36 25 14
v 36 26 14
v 37 20 14
v 37 21 14
v 37 25 14
v 37 26 14
v 38 21 14
v 38 25 14
v 35 18 19
v 35 19 19
v 35 27 19
v 35 28 19
v 37 18 19
v 37 19 19
v 37 20 19
v 37 26 19
v 37 27 19
v 37 28 19
v 38 19 19
v 38 20 19
v 38 26 19
v 38 27 19
v 39 20 19
v 39 26 19
v 30 18 18
v 30 20 18
v 30 26 18
v 30 28 18
v 31 17 18
v 31 18 18
v 31 20 18
v 31 26 18
v 31 28 18
v 31 29 18
v 34 17 18
v 34 18 18
v 34 20 18
v 34 26 18
v 34 28 18
v 34 29 18
v 35 18 18
v 35 19 18
v 35 27 18
v 35 28 18
v 36 20 18
v 36 21 18
v 36 25 18
v 36 26 18
v 37 19 18
v 37 20 18
v 37 21 18
v 37 25 18
v 37 26 18
v 37 27 18
v 38 20 18
v 38 26 18
v 24 20 17
v 24 26 17
v 25 19 17
v 25 20 17
v 25 26 17
v 25 27 17
v 28 19 17
v 28 20 17
v 28 26 17
v 28 27 17
v 31 18 17
v 31 20 17
v 31 26 17
v 31 28 17
v 34 18 17
v 34 20 17
v 34 26 17
v 34 28 17
v 25 20 16
v 25 26 16
v 27 21 16
v 27 25 16
v 28 20 16
v 28 21 16
v 28 25 16
v 28 26 16
v 29 20 16
v 29 21 16
v 29 25 16
v 29 26 16
v 28 21 14
v 28 25 14
v 29 20 14
v 29 21 14
v 29 25 14
v 29 26 14
v 30 20 14
v 30 21 14
v 30 25 14
v 30 26 14
v 29 21 13
v 29 25 13
v 30 20 13
v 30 21 13
v 30 25 13
v 30 26 13
v 32 20 13
v 32 21 13
v 32 25 13
v 32 26 13
v 30 21 12
v 30 25 12
v 32 20 12
v 32 21 12
v 32 25 12
v 32 26 12
v 33 20 12
v 33 21 12
v 33 25 12
v 33 26 12
v 32 21 11
v 32 25 11
v 33 20 11
v 33 21 11
v 33 25 11
v 33 26 11
v 37 20 11
v 37 21 11
v 37 25 11
v 37 26 11
v 38 21 11
v 38 25 11
v 33 21 10
v 33 25 10
v 37 21 10
v 37 25 10
v 31 17 21
v 34 17 21
v 31 17 18
v 34 17 18
v 31 18 22
v 37 18 22
v 30 18 21
v 31 18 21
v 34 18 21
v 35 18 19
v 37 18 19
v 30 18 18
v 31 18 18
v 34 18 18
v 35 18 18
v 31 18 17
v 34 18 17
v 34 19 23
v 37 19 23
v 34 19 22
v 37 19 22
v 38 19 22
v 25 19 20
v 28 19 20
v 35 19 19
v 37 19 19
v 38 19 19
v 35 19 18
v 37 19 18
v 25 19 17
v 28 19 17
v 26 20 24
v 29 20 24
v 29 20 23
v 34 20 23
v 37 20 23
v 38 20 23
v 31 20 22
v 34 20 22
v 37 20 22
v 38 20 22
v 39 20 22
v 25 20 21
v 26 20 21
v 28 20 21
v 30 20 21
v 31 20 21
v 24 20 20
v 25 20 20
v 28 20 20
v 37 20 19
v 38 20 19
v 39 20 19
v 30 20 18
v 31 20 18
v 34 20 18
v 36 20 18
v 37 20 18
v 38 20 18
v 24 20 17
v 25 20 17
v 28 20 17
v 31 20 17
v 34 20 17
v 25 20 16
v 28 20 16
v 29 20 16
v 29 20 14
v 30 20 14
v 36 20 14
v 37 20 14
v 30 20 13
v 32 20 13
v 32 20 12
v 33 20 12
v 33 20 11
v 37 20 11
v 26 21 25
v 29 21 25
v 25 21 24
v 26 21 24
v 29 21 24
v 34 21 24
v 29 21 23
v 34 21 23
v 25 21 21
v 26 21 21
v 36 21 18
v 37 21 18
v 28 21 16
v 29 21 16
v 28 21 14
v 29 21 14
v 30 21 14
v 36 21 14
v 37 21 14
v 38 21 14
v 29 21 13
v 30 21 13
v 32 21 13
v 30 21 12
v 32 21 12
v 33 21 12
v 32 21 11
v 33 21 11
v 37 21 11
v 38 21 11
v 33 21 10
v 37 21 10
v 26 25 25
v 29 25 25
v 25 25 24
v 26 25 24
v 29 25 24
v 34 25 24
v 29 25 23
v 34 25 23
v 25 25 21
v 26 25 21
v 36 25 18
v 37 25 18
v 28 25 16
v 29 25 16
v 28 25 14
v 29 25 14
v 30 25 14
v 36 25 14
v 37 25 14
v 38 25 14
v 29 25 13
v 30 25 13
v 32 25 13
v 30 25 12
v 32 25 12
v 33 25 12
v 32 25 11
v 33 25 11
v 37 25 11
v 38 25 11
v 33 25 10
v 37 25 10
v 26 26 24
v 29 26 24
v 29 26 23
v 34 26 23
v 37 26 23
v 38 26 23
v 31 26 22
v 34 26 22
v 37 26 22
v 38 26 22
v 39 26 22
v 25 26 21
v 26 26 21
v 28 26 21
v 30 26 21
v 31 26 21
v 24 26 20
v 25 26 20
v 28 26 20
v 37 26 19
v 38 26 19
v 39 26 19
v 30 26 18
v 31 26 18
v 34 26 18
v 36 26 18
v 37 26 18
v 38 26 18
v 24 26 17
v 25 26 17
v 28 26 17
v 31 26 17
v 34 26 17
v 25 26 16
v 28 26 16
v 29 26 16
v 29 26 14
v 30 26 14
v 36 26 14
v 37 26 14
v 30 26 13
v 32 26 13
v 32 26 12
v 33 26 12
v 33 26 11
v 37 26 11
v 34 27 23
v 37 27 23
v 34 27 22
v 37 27 22
v 38 27 22
v 25 27 20
v 28 27 20
v 35 27 19
v 37 27 19
v 38 27 19
v 35 27 18
v 37 27 18
v 25 27 17
v 28 27 17
v 31 28 22
v 37 28 22
v 30 28 21
v 31 28 21
v 34 28 21
v 35 28 19
v 37 28 19
v 30 28 18
v 31 28 18
v 34 28 18
v 35 28 18
v 31 28 17
v 34 28 17
v 31 29 21
v 34 29 21
v 31 29 18
v 34 29 18

# faces
f 3/1/1 2/1/1 1/1/1
f 4/1/1 2/1/1 3/1/1
f 8/1/1 6/1/1 5/1/1
f 9/1/1 6/1/1 8/1/1
f 12/1/1 8/1/1 7/1/1
f 13/2/1 12/2/1 11/2/1
f 14/1/1 8/1/1 12/1/1
f 14/2/1 12/2/1 13/2/1
f 15/1/1 8/1/1 14/1/1
f 16/1/1 8/1/1 15/1/1
f 17/1/1 10/1/1 9/1/1
f 18/1/1 10/1/1 17/1/1
f 19/1/1 17/1/1 16/1/1
f 20/1/1 17/1/1 19/1/1
f 24/2/1 22/2/1 21/2/1
f 25/2/1 22/2/1 24/2/1
f 26/2/1 24/2/1 23/2/1
f 27/2/1 24/2/1 26/2/1
f 29/2/1 28/2/1 27/2/1
f 30/2/1 28/2/1 29/2/1
f 33/2/1 32/2/1 31/2/1
f 34/2/1 32/2/1 33/2/1
f 37/2/1 36/2/1 35/2/1
f 38/2/1 36/2/1 37/2/1
f 41/2/1 39/2/1 38/2/1
f 42/2/1 39/2/1 41/2/1
f 43/2/1 41/2/1 40/2/1
f 44/2/1 41/2/1 43/2/1
f 47/1/1 46/1/1 45/1/1
f 48/1/1 46/1/1 47/1/1
f 51/2/1 50/2/1 49/2/1
f 52/2/1 50/2/1 51/2/1
f 55/2/1 53/2/1 52/2/1
f 56/2/1 53/2/1 55/2/1
f 59/2/1 55/2/1 54/2/1
f 60/2/1 55/2/1 59/2/1
f 61/1/1 58/1/1 57/1/1
f 62/1/1 58/1/1 61/1/1
f 66/1/1 64/1/1 63/1/1
f 67/1/1 64/1/1 66/1/1
f 69/1/1 66/1/1 65/1/1
f 70/1/1 66/1/1 69/1/1
f 71/1/1 68/1/1 67/1/1
f 72/1/1 68/1/1 71/1/1
f 77/1/1 74/1/1 73/1/1
f 78/1/1 74/1/1 77/1/1
f 79/1/1 76/1/1 75/1/1
f 80/1/1 76/1/1 79/1/1
f 81/1/1 79/1/1 78/1/1
f 82/1/1 79/1/1 81/1/1
f 85/2/1 84/2/1 83/2/1
f 86/2/1 84/2/1 85/2/1
f 89/2/1 87/2/1 86/2/1
f 90/2/1 87/2/1 89/2/1
f 91/2/1 89/2/1 88/2/1
f 92/2/1 89/2/1 91/2/1
f 95/2/1 94/2/1 93/2/1
f 96/2/1 94/2/1 95/2/1
f 99/2/1 97/2/1 96/2/1
f 100/2/1 97/2/1 99/2/1
f 101/2/1 99/2/1 98/2/1
f 102/2/1 99/2/1 101/2/1
f 105/1/1 104/1/1 103/1/1
f 106/1/1 104/1/1 105/1/1
f 109/1/1 108/1/1 107/1/1
f 110/1/1 108/1/1 109/1/1
f 111/1/2 112/1/2 113/1/2
f 113/1/2 112/1/2 114/1/2
f 115/1/2 116/1/2 117/1/2
f 117/1/2 116/1/2 118/1/2
f 119/2/2 120/2/2 122/2/2
f 122/2/2 120/2/2 123/2/2
f 121/2/2 122/2/2 124/2/2
f 124/2/2 122/2/2 125/2/2
f 125/2/2 126/2/2 127/2/2
f 127/2/2 126/2/2 128/2/2
f 129/1/2 130/1/2 131/1/2
f 131/1/2 130/1/2 132/1/2
f 132/1/2 133/1/2 134/1/2
f 134/1/2 133/1/2 135/1/2
f 136/2/2 137/2/2 138/2/2
f 138/2/2 137/2/2 139/2/2
f 140/1/2 141/1/2 143/1/2
f 143/1/2 141/1/2 144/1/2
f 142/1/2 143/1/2 145/1/2
f 145/1/2 143/1/2 146/1/2
f 147/1/2 148/1/2 149/1/2
f 149/1/2 148/1/2 150/1/2
f 151/1/2 152/1/2 153/1/2
f 153/1/2 152/1/2 154/1/2
f 155/2/2 156/2/2 157/2/2
f 157/2/2 156/2/2 158/2/2
f 159/2/2 160/2/2 161/2/2
f 161/2/2 160/2/2 162/2/2
f 163/1/2 164/1/2 166/1/2
f 166/1/2 164/1/2 167/1/2
f 165/1/2 166/1/2 169/1/2
f 169/1/2 166/1/2 170/1/2
f 167/1/2 168/1/2 171/1/2
f 171/1/2 168/1/2 172/1/2
f 173/2/2 174/2/2 176/2/2
f 176/2/2 174/2/2 177/2/2
f 175/2/2 176/2/2 179/2/2
f 179/2/2 176/2/2 180/2/2
f 177/2/2 178/2/2 181/2/2
f 181/2/2 178/2/2 182/2/2
f 180/2/2 181/2/2 187/2/2
f 187/2/2 181/2/2 188/2/2
f 183/1/2 184/1/2 189/1/2
f 189/1/2 184/1/2 190/1/2
f 185/1/2 186/1/2 191/1/2
f 191/1/2 186/1/2 192/1/2
f 190/1/2 191/1/2 193/1/2
f 193/1/2 191/1/2 194/1/2
f 195/1/2 196/1/2 198/1/2
f 198/1/2 196/1/2 199/1/2
f 201/2/2 202/2/2 203/2/2
f 203/2/2 202/2/2 204/2/2
f 197/1/2 198/1/2 205/1/2
f 205/1/2 198/1/2 206/1/2
f 199/1/2 200/1/2 207/1/2
f 207/1/2 200/1/2 208/1/2
f 206/1/2 207/1/2 209/1/2
f 209/1/2 207/1/2 210/1/2
f 211/1/2 212/1/2 213/1/2
f 213/1/2 212/1/2 214/1/2
f 217/2/3 216/2/3 215/2/3
f 218/2/3 216/2/3 217/2/3
f 222/2/3 220/2/3 219/2/3
f 223/2/3 220/2/3 222/2/3
f 225/2/3 222/2/3 221/2/3
f 226/2/3 222/2/3 225/2/3
f 227/2/3 224/2/3 223/2/3
f 228/2/3 224/2/3 227/2/3
f 229/2/3 227/2/3 226/2/3
f 230/2/3 227/2/3 229/2/3
f 236/2/3 232/2/3 231/2/3
f 237/2/3 232/2/3 236/2/3
f 238/2/3 234/2/3 233/2/3
f 239/2/3 234/2/3 238/2/3
f 241/1/3 237/1/3 236/1/3
f 241/1/3 236/1/3 235/1/3
f 241/2/3 238/2/3 237/2/3
f 242/1/3 240/1/3 239/1/3
f 242/2/3 238/2/3 241/2/3
f 242/1/3 239/1/3 238/1/3
f 243/1/3 241/1/3 235/1/3
f 243/1/3 242/1/3 241/1/3
f 244/1/3 242/1/3 243/1/3
f 245/1/3 240/1/3 242/1/3
f 245/1/3 242/1/3 244/1/3
f 246/1/3 240/1/3 245/1/3
f 247/1/3 245/1/3 244/1/3
f 248/1/3 245/1/3 247/1/3
f 253/1/3 250/1/3 249/1/3
f 254/1/3 250/1/3 253/1/3
f 255/1/3 252/1/3 251/1/3
f 256/1/3 252/1/3 255/1/3
f 257/1/3 253/1/3 249/1/3
f 258/1/3 253/1/3 257/1/3
f 261/1/3 252/1/3 256/1/3
f 262/1/3 252/1/3 261/1/3
f 263/1/3 259/1/3 258/1/3
f 264/1/3 259/1/3 263/1/3
f 265/1/3 261/1/3 260/1/3
f 266/1/3 261/1/3 265/1/3
f 267/1/3 265/1/3 264/1/3
f 268/1/3 265/1/3 267/1/3
f 273/1/3 270/1/3 269/1/3
f 274/1/3 270/1/3 273/1/3
f 275/1/3 272/1/3 271/1/3
f 276/1/3 272/1/3 275/1/3
f 282/1/3 278/1/3 277/1/3
f 283/1/3 278/1/3 282/1/3
f 284/1/3 280/1/3 279/1/3
f 285/1/3 280/1/3 284/1/3
f 287/1/3 282/1/3 281/1/3
f 288/1/3 282/1/3 287/1/3
f 289/1/3 286/1/3 285/1/3
f 290/1/3 286/1/3 289/1/3
f 294/1/3 292/1/3 291/1/3
f 295/1/3 292/1/3 294/1/3
f 297/1/3 294/1/3 293/1/3
f 298/1/3 294/1/3 297/1/3
f 299/1/3 296/1/3 295/1/3
f 300/1/3 296/1/3 299/1/3
f 305/2/3 302/2/3 301/2/3
f 306/2/3 302/2/3 305/2/3
f 307/2/3 304/2/3 303/2/3
f 308/2/3 304/2/3 307/2/3
f 309/2/3 307/2/3 306/2/3
f 310/2/3 307/2/3 309/2/3
f 311/1/4 312/1/4 315/1/4
f 315/1/4 312/1/4 316/1/4
f 313/1/4 314/1/4 319/1/4
f 319/1/4 314/1/4 320/1/4
f 316/1/4 317/1/4 321/1/4
f 321/1/4 317/1/4 322/1/4
f 318/1/4 319/1/4 323/1/4
f 323/1/4 319/1/4 324/1/4
f 322/1/4 323/1/4 325/1/4
f 325/1/4 323/1/4 326/1/4
f 327/1/4 328/1/4 332/1/4
f 332/1/4 328/1/4 333/1/4
f 329/1/4 330/1/4 334/1/4
f 334/1/4 330/1/4 335/1/4
f 331/1/4 332/1/4 337/1/4
f 337/1/4 332/1/4 338/1/4
f 335/1/4 336/1/4 341/1/4
f 341/1/4 336/1/4 342/1/4
f 338/1/4 339/1/4 343/1/4
f 343/1/4 339/1/4 344/1/4
f 340/1/4 341/1/4 345/1/4
f 345/1/4 341/1/4 346/1/4
f 344/1/4 339/1/4 347/1/4
f 340/1/4 345/1/4 350/1/4
f 347/1/4 348/1/4 351/1/4
f 344/1/4 347/1/4 351/1/4
f 351/1/4 348/1/4 352/1/4
f 352/1/4 348/1/4 353/1/4
f 349/1/4 350/1/4 354/1/4
f 350/1/4 345/1/4 355/1/4
f 354/1/4 350/1/4 355/1/4
f 355/1/4 345/1/4 356/1/4
f 352/1/4 353/1/4 357/1/4
f 353/1/4 354/1/4 357/1/4
f 354/1/4 355/1/4 357/1/4
f 357/1/4 355/1/4 358/1/4
f 359/1/4 360/1/4 362/1/4
f 362/1/4 360/1/4 363/1/4
f 361/1/4 362/1/4 365/1/4
f 365/1/4 362/1/4 366/1/4
f 363/1/4 364/1/4 367/1/4
f 367/1/4 364/1/4 368/1/4
f 369/1/4 370/1/4 373/1/4
f 373/1/4 370/1/4 374/1/4
f 371/1/4 372/1/4 375/1/4
f 375/1/4 372/1/4 376/1/4
f 377/1/4 378/1/4 379/1/4
f 379/1/4 378/1/4 380/1/4
f 377/1/4 379/1/4 381/1/4
f 379/2/4 380/2/4 382/2/4
f 381/1/4 379/1/4 382/1/4
f 380/1/4 378/1/4 383/1/4
f 382/2/4 380/2/4 383/2/4
f 383/1/4 378/1/4 384/1/4
f 381/2/4 382/2/4 385/2/4
f 385/2/4 382/2/4 386/2/4
f 383/2/4 384/2/4 387/2/4
f 387/2/4 384/2/4 388/2/4
f 389/2/4 390/2/4 392/2/4
f 392/2/4 390/2/4 393/2/4
f 391/2/4 392/2/4 395/2/4
f 395/2/4 392/2/4 396/2/4
f 393/2/4 394/2/4 397/2/4
f 397/2/4 394/2/4 398/2/4
f 399/2/4 400/2/4 402/2/4
f 402/2/4 400/2/4 403/2/4
f 401/2/4 402/2/4 405/2/4
f 405/2/4 402/2/4 406/2/4
f 403/2/4 404/2/4 407/2/4
f 407/2/4 404/2/4 408/2/4
f 409/2/4 410/2/4 412/2/4
f 412/2/4 410/2/4 413/2/4
f 411/2/4 412/2/4 415/2/4
f 415/2/4 412/2/4 416/2/4
f 413/2/4 414/2/4 417/2/4
f 417/2/4 414/2/4 418/2/4
f 419/2/4 420/2/4 422/2/4
f 422/2/4 420/2/4 423/2/4
f 421/2/4 422/2/4 425/2/4
f 425/2/4 422/2/4 426/2/4
f 423/2/4 424/2/4 427/2/4
f 427/2/4 424/2/4 428/2/4
f 426/2/4 427/2/4 429/2/4
f 429/2/4 427/2/4 430/2/4
f 431/2/4 432/2/4 433/2/4
f 433/2/4 432/2/4 434/2/4
f 437/1/5 436/1/5 435/1/5
f 438/1/5 436/1/5 437/1/5
f 442/1/5 440/1/5 439/1/5
f 443/1/5 440/1/5 442/1/5
f 444/1/5 440/1/5 443/1/5
f 445/1/5 440/1/5 444/1/5
f 446/1/5 442/1/5 441/1/5
f 447/1/5 442/1/5 446/1/5
f 448/1/5 444/1/5 443/1/5
f 449/1/5 444/1/5 448/1/5
f 450/1/5 448/1/5 447/1/5
f 451/1/5 448/1/5 450/1/5
f 454/1/5 453/1/5 452/1/5
f 455/1/5 453/1/5 454/1/5
f 460/1/5 456/1/5 455/1/5
f 461/1/5 456/1/5 460/1/5
f 462/1/5 460/1/5 459/1/5
f 463/1/5 460/1/5 462/1/5
f 464/1/5 458/1/5 457/1/5
f 465/1/5 458/1/5 464/1/5
f 468/2/5 467/2/5 466/2/5
f 472/2/5 469/2/5 468/2/5
f 473/2/5 469/2/5 472/2/5
f 474/1/5 471/1/5 470/1/5
f 475/1/5 471/1/5 474/1/5
f 478/2/5 468/2/5 466/2/5
f 478/2/5 472/2/5 468/2/5
f 479/2/5 472/2/5 478/2/5
f 480/2/5 472/2/5 479/2/5
f 481/2/5 472/2/5 480/2/5
f 483/1/5 478/1/5 477/1/5
f 483/1/5 479/1/5 478/1/5
f 484/2/5 480/2/5 479/2/5
f 484/1/5 479/1/5 483/1/5
f 486/1/5 476/1/5 475/1/5
f 487/1/5 476/1/5 486/1/5
f 488/2/5 480/2/5 484/2/5
f 492/1/5 486/1/5 485/1/5
f 493/1/5 486/1/5 492/1/5
f 494/1/5 483/1/5 482/1/5
f 495/1/5 483/1/5 494/1/5
f 496/2/5 488/2/5 484/2/5
f 496/2/5 489/2/5 488/2/5
f 497/2/5 489/2/5 496/2/5
f 498/2/5 491/2/5 490/2/5
f 499/1/5 496/1/5 495/1/5
f 500/2/5 497/2/5 496/2/5
f 500/1/5 496/1/5 499/1/5
f 500/2/5 498/2/5 497/2/5
f 501/2/5 498/2/5 500/2/5
f 502/2/5 498/2/5 501/2/5
f 503/2/5 498/2/5 502/2/5
f 504/2/5 491/2/5 498/2/5
f 504/2/5 498/2/5 503/2/5
f 506/2/5 505/2/5 504/2/5
f 506/2/5 504/2/5 503/2/5
f 507/2/5 505/2/5 506/2/5
f 508/2/5 505/2/5 507/2/5
f 509/2/5 505/2/5 508/2/5
f 510/2/5 505/2/5 509/2/5
f 511/2/5 505/2/5 510/2/5
f 515/2/5 513/2/5 512/2/5
f 516/2/5 513/2/5 515/2/5
f 518/2/5 517/2/5 516/2/5
f 519/2/5 517/2/5 518/2/5
f 520/2/5 515/2/5 514/2/5
f 521/2/5 515/2/5 520/2/5
f 526/2/5 525/2/5 524/2/5
f 527/2/5 525/2/5 526/2/5
f 529/2/5 523/2/5 522/2/5
f 530/2/5 523/2/5 529/2/5
f 532/2/5 528/2/5 527/2/5
f 533/2/5 528/2/5 532/2/5
f 535/2/5 534/2/5 533/2/5
f 536/2/5 534/2/5 535/2/5
f 538/2/5 537/2/5 536/2/5
f 539/2/5 537/2/5 538/2/5
f 540/2/5 531/2/5 530/2/5
f 541/2/5 531/2/5 540/2/5
f 542/2/5 540/2/5 539/2/5
f 543/2/5 540/2/5 542/2/5
f 544/2/6 545/2/6 547/2/6
f 547/2/6 545/2/6 548/2/6
f 548/2/6 549/2/6 550/2/6
f 550/2/6 549/2/6 551/2/6
f 546/2/6 547/2/6 552/2/6
f 552/2/6 547/2/6 553/2/6
f 556/2/6 557/2/6 558/2/6
f 558/2/6 557/2/6 559/2/6
f 554/2/6 555/2/6 561/2/6
f 561/2/6 555/2/6 562/2/6
f 559/2/6 560/2/6 564/2/6
f 564/2/6 560/2/6 565/2/6
f 565/2/6 566/2/6 567/2/6
f 567/2/6 566/2/6 568/2/6
f 568/2/6 569/2/6 570/2/6
f 570/2/6 569/2/6 571/2/6
f 562/2/6 563/2/6 572/2/6
f 572/2/6 563/2/6 573/2/6
f 571/2/6 572/2/6 574/2/6
f 574/2/6 572/2/6 575/2/6
f 576/2/6 577/2/6 578/2/6
f 578/2/6 579/2/6 582/2/6
f 582/2/6 579/2/6 583/2/6
f 580/1/6 581/1/6 584/1/6
f 584/1/6 581/1/6 585/1/6
f 576/2/6 578/2/6 588/2/6
f 578/2/6 582/2/6 588/2/6
f 588/2/6 582/2/6 589/2/6
f 589/2/6 582/2/6 590/2/6
f 590/2/6 582/2/6 591/2/6
f 587/1/6 588/1/6 593/1/6
f 588/1/6 589/1/6 593/1/6
f 589/2/6 590/2/6 594/2/6
f 593/1/6 589/1/6 594/1/6
f 585/1/6 586/1/6 596/1/6
f 596/1/6 586/1/6 597/1/6
f 594/2/6 590/2/6 598/2/6
f 595/1/6 596/1/6 602/1/6
f 602/1/6 596/1/6 603/1/6
f 592/1/6 593/1/6 604/1/6
f 604/1/6 593/1/6 605/1/6
f 594/2/6 598/2/6 606/2/6
f 598/2/6 599/2/6 606/2/6
f 606/2/6 599/2/6 607/2/6
f 600/2/6 601/2/6 608/2/6
f 605/1/6 606/1/6 609/1/6
f 606/2/6 607/2/6 610/2/6
f 609/1/6 606/1/6 610/1/6
f 607/2/6 608/2/6 610/2/6
f 610/2/6 608/2/6 611/2/6
f 611/2/6 608/2/6 612/2/6
f 612/2/6 608/2/6 613/2/6
f 608/2/6 601/2/6 614/2/6
f 613/2/6 608/2/6 614/2/6
f 614/2/6 615/2/6 616/2/6
f 613/2/6 614/2/6 616/2/6
f 616/2/6 615/2/6 617/2/6
f 617/2/6 615/2/6 618/2/6
f 618/2/6 615/2/6 619/2/6
f 619/2/6 615/2/6 620/2/6
f 620/2/6 615/2/6 621/2/6
f 622/1/6 623/1/6 624/1/6
f 624/1/6 623/1/6 625/1/6
f 625/1/6 626/1/6 630/1/6
f 630/1/6 626/1/6 631/1/6
f 629/1/6 630/1/6 632/1/6
f 632/1/6 630/1/6 633/1/6
f 627/1/6 628/1/6 634/1/6
f 634/1/6 628/1/6 635/1/6
f 636/1/6 637/1/6 639/1/6
f 639/1/6 637/1/6 640/1/6
f 640/1/6 637/1/6 641/1/6
f 641/1/6 637/1/6 642/1/6
f 638/1/6 639/1/6 643/1/6
f 643/1/6 639/1/6 644/1/6
f 640/1/6 641/1/6 645/1/6
f 645/1/6 641/1/6 646/1/6
f 644/1/6 645/1/6 647/1/6
f 647/1/6 645/1/6 648/1/6
f 649/1/6 650/1/6 651/1/6
f 651/1/6 650/1/6 652/1/6
