# MagicaVoxel @ Ephtracy

# group
g flower_4

# material
mtllib flower_4.mtl
usemtl palette

# normals
vn -1 0 0
vn 1 0 0
vn 0 0 1
vn 0 0 -1
vn 0 -1 0
vn 0 1 0

# texcoords
vt 0.162109 0.5
vt 0.771484 0.5
vt 0.841797 0.5

# verts
v 7 8 12
v 7 8 11
v 7 10 12
v 7 10 11
v 8 0 12
v 8 0 11
v 8 5 11
v 8 5 10
v 8 6 11
v 8 6 10
v 8 8 13
v 8 8 12
v 8 8 11
v 8 8 10
v 8 10 13
v 8 10 12
v 8 10 11
v 8 10 10
v 9 0 12
v 9 0 11
v 9 5 11
v 9 5 10
v 9 6 11
v 9 6 10
v 9 8 13
v 9 8 12
v 9 8 11
v 9 8 10
v 9 10 13
v 9 10 12
v 9 10 11
v 9 10 10
v 10 8 12
v 10 8 11
v 10 10 12
v 10 10 11
v 8 8 13
v 8 10 13
v 9 8 13
v 9 10 13
v 7 8 12
v 7 10 12
v 8 0 12
v 8 8 12
v 8 10 12
v 9 0 12
v 9 8 12
v 9 10 12
v 10 8 12
v 10 10 12
v 7 8 11
v 7 10 11
v 8 0 11
v 8 5 11
v 8 6 11
v 8 8 11
v 8 10 11
v 9 0 11
v 9 5 11
v 9 6 11
v 9 8 11
v 9 10 11
v 10 8 11
v 10 10 11
v 8 5 10
v 8 6 10
v 8 8 10
v 8 10 10
v 9 5 10
v 9 6 10
v 9 8 10
v 9 10 10
v 8 0 12
v 9 0 12
v 8 0 11
v 9 0 11
v 8 5 11
v 9 5 11
v 8 5 10
v 9 5 10
v 8 8 13
v 9 8 13
v 7 8 12
v 8 8 12
v 9 8 12
v 10 8 12
v 7 8 11
v 8 8 11
v 9 8 11
v 10 8 11
v 8 8 10
v 9 8 10
v 8 6 11
v 9 6 11
v 8 6 10
v 9 6 10
v 8 10 13
v 9 10 13
v 7 10 12
v 8 10 12
v 9 10 12
v 10 10 12
v 7 10 11
v 8 10 11
v 9 10 11
v 10 10 11
v 8 10 10
v 9 10 10

# faces
f 3/3/1 2/3/1 1/3/1
f 4/3/1 2/3/1 3/3/1
f 7/2/1 6/2/1 5/2/1
f 9/2/1 7/2/1 5/2/1
f 9/2/1 8/2/1 7/2/1
f 10/2/1 8/2/1 9/2/1
f 12/2/1 9/2/1 5/2/1
f 13/2/1 9/2/1 12/2/1
f 15/3/1 12/3/1 11/3/1
f 16/3/1 12/3/1 15/3/1
f 17/3/1 14/3/1 13/3/1
f 18/3/1 14/3/1 17/3/1
f 19/2/2 20/2/2 21/2/2
f 19/2/2 21/2/2 23/2/2
f 21/2/2 22/2/2 23/2/2
f 23/2/2 22/2/2 24/2/2
f 19/2/2 23/2/2 26/2/2
f 26/2/2 23/2/2 27/2/2
f 25/3/2 26/3/2 29/3/2
f 29/3/2 26/3/2 30/3/2
f 27/3/2 28/3/2 31/3/2
f 31/3/2 28/3/2 32/3/2
f 33/3/2 34/3/2 35/3/2
f 35/3/2 34/3/2 36/3/2
f 39/3/3 38/3/3 37/3/3
f 40/3/3 38/3/3 39/3/3
f 44/3/3 42/3/3 41/3/3
f 45/3/3 42/3/3 44/3/3
f 46/2/3 44/2/3 43/2/3
f 47/2/3 44/2/3 46/2/3
f 49/3/3 48/3/3 47/3/3
f 50/3/3 48/3/3 49/3/3
f 51/3/4 52/3/4 56/3/4
f 56/3/4 52/3/4 57/3/4
f 53/2/4 54/2/4 58/2/4
f 58/2/4 54/2/4 59/2/4
f 55/2/4 56/2/4 60/2/4
f 60/2/4 56/2/4 61/2/4
f 61/3/4 62/3/4 63/3/4
f 63/3/4 62/3/4 64/3/4
f 65/2/4 66/2/4 69/2/4
f 69/2/4 66/2/4 70/2/4
f 67/3/4 68/3/4 71/3/4
f 71/3/4 68/3/4 72/3/4
f 75/2/5 74/2/5 73/2/5
f 76/2/5 74/2/5 75/2/5
f 79/2/5 78/2/5 77/2/5
f 80/2/5 78/2/5 79/2/5
f 84/3/5 82/3/5 81/3/5
f 85/3/5 82/3/5 84/3/5
f 87/3/5 84/3/5 83/3/5
f 88/3/5 84/3/5 87/3/5
f 89/3/5 86/3/5 85/3/5
f 90/3/5 86/3/5 89/3/5
f 91/3/5 89/3/5 88/3/5
f 92/3/5 89/3/5 91/3/5
f 93/2/6 94/2/6 95/2/6
f 95/2/6 94/2/6 96/2/6
f 97/3/6 98/3/6 100/3/6
f 100/3/6 98/3/6 101/3/6
f 99/3/6 100/3/6 103/3/6
f 100/1/6 101/1/6 104/1/6
f 103/3/6 100/3/6 104/3/6
f 101/3/6 102/3/6 105/3/6
f 104/1/6 101/1/6 105/1/6
f 105/3/6 102/3/6 106/3/6
f 104/3/6 105/3/6 107/3/6
f 107/3/6 105/3/6 108/3/6
