# MagicaVoxel @ Ephtracy

# group
g flower_7

# material
mtllib flower_7.mtl
usemtl palette

# normals
vn -1 0 0
vn 1 0 0
vn 0 0 1
vn 0 0 -1
vn 0 -1 0
vn 0 1 0

# texcoords
vt 0.162109 0.5
vt 0.279297 0.5
vt 0.771484 0.5

# verts
v 11 0 -5
v 11 0 -6
v 11 4 -5
v 11 4 -6
v 11 5 -5
v 11 5 -6
v 12 0 -4
v 12 0 -5
v 12 0 -6
v 12 0 -7
v 12 4 -4
v 12 4 -5
v 12 4 -6
v 12 4 -7
v 12 5 -4
v 12 5 -5
v 12 5 -6
v 12 5 -7
v 13 0 -4
v 13 0 -5
v 13 0 -6
v 13 0 -7
v 13 4 -4
v 13 4 -5
v 13 4 -6
v 13 4 -7
v 13 5 -4
v 13 5 -5
v 13 5 -6
v 13 5 -7
v 14 0 -5
v 14 0 -6
v 14 4 -5
v 14 4 -6
v 14 5 -5
v 14 5 -6
v 12 0 -4
v 12 4 -4
v 12 5 -4
v 13 0 -4
v 13 4 -4
v 13 5 -4
v 11 0 -5
v 11 4 -5
v 11 5 -5
v 12 0 -5
v 12 4 -5
v 12 5 -5
v 13 0 -5
v 13 4 -5
v 13 5 -5
v 14 0 -5
v 14 4 -5
v 14 5 -5
v 11 0 -6
v 11 4 -6
v 11 5 -6
v 12 0 -6
v 12 4 -6
v 12 5 -6
v 13 0 -6
v 13 4 -6
v 13 5 -6
v 14 0 -6
v 14 4 -6
v 14 5 -6
v 12 0 -7
v 12 4 -7
v 12 5 -7
v 13 0 -7
v 13 4 -7
v 13 5 -7
v 12 0 -4
v 13 0 -4
v 11 0 -5
v 12 0 -5
v 13 0 -5
v 14 0 -5
v 11 0 -6
v 12 0 -6
v 13 0 -6
v 14 0 -6
v 12 0 -7
v 13 0 -7
v 12 5 -4
v 13 5 -4
v 11 5 -5
v 12 5 -5
v 13 5 -5
v 14 5 -5
v 11 5 -6
v 12 5 -6
v 13 5 -6
v 14 5 -6
v 12 5 -7
v 13 5 -7

# faces
f 3/3/1 2/3/1 1/3/1
f 4/3/1 2/3/1 3/3/1
f 5/1/1 4/1/1 3/1/1
f 6/1/1 4/1/1 5/1/1
f 11/3/1 8/3/1 7/3/1
f 12/3/1 8/3/1 11/3/1
f 13/3/1 10/3/1 9/3/1
f 14/3/1 10/3/1 13/3/1
f 15/1/1 12/1/1 11/1/1
f 16/1/1 12/1/1 15/1/1
f 17/1/1 14/1/1 13/1/1
f 18/1/1 14/1/1 17/1/1
f 19/3/2 20/3/2 23/3/2
f 23/3/2 20/3/2 24/3/2
f 21/3/2 22/3/2 25/3/2
f 25/3/2 22/3/2 26/3/2
f 23/1/2 24/1/2 27/1/2
f 27/1/2 24/1/2 28/1/2
f 25/1/2 26/1/2 29/1/2
f 29/1/2 26/1/2 30/1/2
f 31/3/2 32/3/2 33/3/2
f 33/3/2 32/3/2 34/3/2
f 33/1/2 34/1/2 35/1/2
f 35/1/2 34/1/2 36/1/2
f 40/3/3 38/3/3 37/3/3
f 41/1/3 39/1/3 38/1/3
f 41/3/3 38/3/3 40/3/3
f 42/1/3 39/1/3 41/1/3
f 46/3/3 44/3/3 43/3/3
f 47/1/3 45/1/3 44/1/3
f 47/3/3 44/3/3 46/3/3
f 48/1/3 45/1/3 47/1/3
f 52/3/3 50/3/3 49/3/3
f 53/1/3 51/1/3 50/1/3
f 53/3/3 50/3/3 52/3/3
f 54/1/3 51/1/3 53/1/3
f 55/3/4 56/3/4 58/3/4
f 56/1/4 57/1/4 59/1/4
f 58/3/4 56/3/4 59/3/4
f 59/1/4 57/1/4 60/1/4
f 61/3/4 62/3/4 64/3/4
f 62/1/4 63/1/4 65/1/4
f 64/3/4 62/3/4 65/3/4
f 65/1/4 63/1/4 66/1/4
f 67/3/4 68/3/4 70/3/4
f 68/1/4 69/1/4 71/1/4
f 70/3/4 68/3/4 71/3/4
f 71/1/4 69/1/4 72/1/4
f 76/3/5 74/3/5 73/3/5
f 77/3/5 74/3/5 76/3/5
f 79/3/5 76/3/5 75/3/5
f 79/3/5 78/3/5 77/3/5
f 79/3/5 77/3/5 76/3/5
f 80/3/5 78/3/5 79/3/5
f 81/3/5 78/3/5 80/3/5
f 82/3/5 78/3/5 81/3/5
f 83/3/5 81/3/5 80/3/5
f 84/3/5 81/3/5 83/3/5
f 85/1/6 86/1/6 88/1/6
f 88/1/6 86/1/6 89/1/6
f 87/1/6 88/1/6 91/1/6
f 88/2/6 89/2/6 92/2/6
f 91/1/6 88/1/6 92/1/6
f 89/1/6 90/1/6 93/1/6
f 92/2/6 89/2/6 93/2/6
f 93/1/6 90/1/6 94/1/6
f 92/1/6 93/1/6 95/1/6
f 95/1/6 93/1/6 96/1/6
