# MagicaVoxel @ Ephtracy

# group
g flower_5

# material
mtllib flower_5.mtl
usemtl palette

# normals
vn -1 0 0
vn 1 0 0
vn 0 0 1
vn 0 0 -1
vn 0 -1 0
vn 0 1 0

# texcoords
vt 0.00585938 0.5
vt 0.771484 0.5
vt 0.841797 0.5
vt 0.958984 0.5

# verts
v 6 6 -10
v 6 6 -13
v 6 7 -10
v 6 7 -13
v 7 0 -11
v 7 0 -12
v 7 4 -11
v 7 4 -12
v 7 6 -11
v 7 6 -12
v 8 0 -11
v 8 0 -12
v 8 4 -11
v 8 4 -12
v 8 6 -11
v 8 6 -12
v 9 6 -10
v 9 6 -13
v 9 7 -10
v 9 7 -13
v 6 6 -10
v 6 7 -10
v 9 6 -10
v 9 7 -10
v 7 0 -11
v 7 4 -11
v 7 6 -11
v 8 0 -11
v 8 4 -11
v 8 6 -11
v 7 0 -12
v 7 4 -12
v 7 6 -12
v 8 0 -12
v 8 4 -12
v 8 6 -12
v 6 6 -13
v 6 7 -13
v 9 6 -13
v 9 7 -13
v 7 0 -11
v 8 0 -11
v 7 0 -12
v 8 0 -12
v 6 6 -10
v 9 6 -10
v 7 6 -11
v 8 6 -11
v 7 6 -12
v 8 6 -12
v 6 6 -13
v 9 6 -13
v 6 7 -10
v 9 7 -10
v 7 7 -11
v 8 7 -11
v 7 7 -12
v 8 7 -12
v 6 7 -13
v 9 7 -13

# faces
f 3/3/1 2/3/1 1/3/1
f 4/3/1 2/3/1 3/3/1
f 7/2/1 6/2/1 5/2/1
f 8/2/1 6/2/1 7/2/1
f 9/1/1 8/1/1 7/1/1
f 10/1/1 8/1/1 9/1/1
f 11/2/2 12/2/2 13/2/2
f 13/2/2 12/2/2 14/2/2
f 13/1/2 14/1/2 15/1/2
f 15/1/2 14/1/2 16/1/2
f 17/3/2 18/3/2 19/3/2
f 19/3/2 18/3/2 20/3/2
f 23/3/3 22/3/3 21/3/3
f 24/3/3 22/3/3 23/3/3
f 28/2/3 26/2/3 25/2/3
f 29/1/3 27/1/3 26/1/3
f 29/2/3 26/2/3 28/2/3
f 30/1/3 27/1/3 29/1/3
f 31/2/4 32/2/4 34/2/4
f 32/1/4 33/1/4 35/1/4
f 34/2/4 32/2/4 35/2/4
f 35/1/4 33/1/4 36/1/4
f 37/3/4 38/3/4 39/3/4
f 39/3/4 38/3/4 40/3/4
f 43/2/5 42/2/5 41/2/5
f 44/2/5 42/2/5 43/2/5
f 47/3/5 46/3/5 45/3/5
f 48/3/5 46/3/5 47/3/5
f 49/3/5 47/3/5 45/3/5
f 50/3/5 46/3/5 48/3/5
f 51/3/5 49/3/5 45/3/5
f 51/3/5 50/3/5 49/3/5
f 52/3/5 46/3/5 50/3/5
f 52/3/5 50/3/5 51/3/5
f 53/3/6 54/3/6 55/3/6
f 55/3/6 54/3/6 56/3/6
f 53/3/6 55/3/6 57/3/6
f 55/4/6 56/4/6 57/4/6
f 56/3/6 54/3/6 58/3/6
f 57/4/6 56/4/6 58/4/6
f 53/3/6 57/3/6 59/3/6
f 57/3/6 58/3/6 59/3/6
f 58/3/6 54/3/6 60/3/6
f 59/3/6 58/3/6 60/3/6
